<svg version="1" xmlns="http://www.w3.org/2000/svg" width="933.333" height="933.333" viewBox="0 0 700.000000 700.000000"><path d="M599 1.1c-33.3 2.3-56.3 6.2-93 15.6-39.1 10.1-84.2 28.2-119 47.8-57.1 32.1-107.5 75-148.3 126-6.6 8.2-12.3 15.3-12.6 15.8-.4.4-4.5 1.2-9.2 1.7-89.7 11.1-165.8 68.8-200.2 152C10 376.2 3.2 401.3.6 418.9l-.7 4.4 6.5-7C39.7 380.4 93.8 356 140.2 356h10.5l-3.8 13.1c-3.9 13.4-8.4 32.9-7.8 33.2.2.2 5.4 1.2 11.4 2.4 15.1 3 30.9 8.4 44.5 15.2 11 5.4 28.2 16.1 29.5 18.2.4.5-3.1 5.3-7.7 10.7-19.1 22.2-32.6 42-43.4 63.3-5 10.1-10.7 23.9-10 24.6.6.7 12.9-4.4 23.7-9.8 20.4-10.2 39.3-22.9 61-41.1l13.3-11.1 2.6 3.1c4.4 5.3 14.7 23.2 19.4 33.8 5.5 12.5 9.1 23.9 12 37.9 1.3 6 2.8 11.1 3.4 11.3 1.2.4 34.6-7.9 41.1-10.2l4.4-1.6-.6 14.7c-1.6 40.8-18 81.5-46.1 115-4.2 5.1-10.7 12-14.4 15.3-6.1 5.5-6.4 6-3.7 5.5 32.9-5.6 57.7-13.6 81.5-26.2 58.4-31 103.1-85.3 121.8-147.9 3.5-11.8 7.8-31.7 9.1-42.8.5-4.3 1.3-8.2 1.8-8.6.4-.4 7.6-6.1 15.8-12.7C615.6 376.4 681.9 255.6 697.6 118c1.3-11 1.8-27.1 2.1-66.3l.5-51.7-44.9.1c-24.6.1-50 .5-56.3 1zM489.8 121.5c42.4 8.1 76 39.6 87.3 82.2 2.7 10 3.7 33 1.9 44.1-3.8 23.6-15.3 45.6-32.8 62.4-22 21.1-47 31.2-77.2 31.1-18.5-.1-32.5-3.4-49.5-11.9-57.7-28.7-78.4-102-44.4-157.2 5.8-9.5 19.3-24.1 28.8-31.2 7-5.3 21.3-12.8 29.6-15.5 16.1-5.4 39.9-7.1 56.3-4z"/></svg>